# xmcd
#
# Track frame offsets:
#	150
#	8525
#	35877
#	55862
#	77815
#
# Disc length: 1259 seconds
#
# Revision: 1
# Processed by: cddbd v1.5PL3 Copyright (c) Steve Scherf et al.
# Submitted via: CDex 1.50Beta5
#
DISCID=3404e905
DTITLE=河井英里 - 青に捧げる
DYEAR=1900
DGENRE=Pop
TTITLE0=キストゥリナ
TTITLE1=にわか雨
TTITLE2=青に捧げる
TTITLE3=川下り
TTITLE4=Moon 〜静かの海〜
EXTD=
EXTT0=
EXTT1=
EXTT2=
EXTT3=
EXTT4=
PLAYORDER=
